<svg
        xmlns="http://www.w3.org/2000/svg"
        xmlns:xlink="http://www.w3.org/1999/xlink"
        width="180px" height="191px">
    <path fill-rule="evenodd"  fill="rgb(153, 4, 0)"
          d="M179.807,113.535 C179.354,115.027 178.115,116.115 176.568,116.372 L168.585,117.701 L165.157,125.008 C164.492,126.432 163.038,127.355 161.458,127.355 C159.930,127.355 158.541,126.517 157.836,125.165 L154.099,118.006 L146.067,117.015 C144.514,116.826 143.228,115.791 142.711,114.316 C142.193,112.841 142.557,111.232 143.656,110.120 L149.333,104.372 L147.796,96.452 C147.561,95.259 147.872,94.032 148.650,93.092 C149.831,91.659 151.961,91.201 153.628,92.033 L160.870,95.635 L167.951,91.729 C169.612,90.815 171.798,91.216 173.027,92.636 C173.803,93.531 174.145,94.716 173.971,95.889 L172.772,103.874 L178.687,109.381 C179.831,110.449 180.261,112.038 179.807,113.535 ZM167.523,107.698 C166.539,106.777 166.073,105.440 166.273,104.116 L166.959,99.546 L162.902,101.785 C161.744,102.422 160.289,102.452 159.105,101.870 L154.951,99.803 L155.830,104.343 C156.088,105.656 155.675,107.015 154.729,107.972 L151.482,111.266 L156.085,111.835 C157.414,111.996 158.586,112.804 159.207,113.997 L161.347,118.098 L163.313,113.910 C163.888,112.690 165.021,111.837 166.345,111.618 L170.913,110.854 L167.523,107.698 ZM129.200,65.518 C124.474,81.345 110.333,93.137 93.268,94.463 L93.268,118.658 C104.036,119.832 112.501,126.810 113.472,135.497 L122.311,135.497 C124.074,135.497 125.505,136.921 125.505,138.680 L125.505,172.417 L128.441,172.417 C130.205,172.417 131.636,173.841 131.633,175.601 L131.633,187.821 C131.633,189.581 130.202,191.005 128.440,191.005 L51.548,191.005 C49.785,191.005 48.354,189.581 48.354,187.821 L48.354,175.603 C48.354,173.844 49.785,172.419 51.548,172.419 L54.484,172.419 L54.484,138.682 C54.484,136.923 55.915,135.499 57.678,135.499 L66.673,135.499 C67.642,126.812 76.109,119.832 86.877,118.660 L86.877,94.465 C69.825,93.139 55.691,81.349 50.967,65.529 C37.032,64.837 25.899,53.353 25.899,39.297 L25.899,3.176 C25.899,1.417 27.330,-0.007 29.093,-0.007 L52.287,-0.007 C52.314,-0.007 52.342,0.001 52.370,0.001 C52.397,0.001 52.425,-0.007 52.453,-0.007 L127.702,-0.007 L150.898,-0.007 C152.662,-0.007 154.093,1.417 154.093,3.176 L154.093,39.294 C154.093,53.294 143.054,64.739 129.200,65.518 ZM49.093,6.360 L32.287,6.360 L32.287,39.297 C32.287,49.204 39.578,57.447 49.093,58.975 L49.093,6.360 ZM54.742,178.784 L54.742,184.638 L125.247,184.638 L125.247,178.784 L122.311,178.784 L57.678,178.784 L54.742,178.784 ZM60.873,141.864 L60.873,172.417 L119.117,172.417 L119.117,141.864 L60.873,141.864 ZM73.130,135.497 L107.013,135.497 C105.878,129.484 98.725,124.832 90.072,124.832 C81.419,124.832 74.265,129.484 73.130,135.497 ZM124.508,6.360 L55.647,6.360 L55.647,53.949 C55.647,72.868 71.090,88.259 90.072,88.259 C109.023,88.259 124.440,72.934 124.508,54.072 L124.508,6.360 ZM147.702,6.360 L130.903,6.360 L130.903,53.949 C130.903,53.992 130.897,54.032 130.897,54.072 L130.897,58.975 C140.411,57.447 147.702,49.204 147.702,39.297 L147.702,6.360 ZM90.072,81.892 C74.612,81.892 62.035,69.356 62.035,53.949 L62.035,37.134 C62.035,35.374 63.466,33.950 65.229,33.950 C66.993,33.950 68.424,35.374 68.424,37.134 L68.424,53.949 C68.424,65.847 78.136,75.525 90.072,75.525 C91.834,75.525 93.265,76.949 93.265,78.709 C93.265,80.466 91.834,81.892 90.072,81.892 ZM111.072,169.234 L68.920,169.234 C67.156,169.234 65.726,167.810 65.726,166.050 L65.726,148.229 C65.726,146.469 67.156,145.045 68.920,145.045 L111.070,145.045 C112.835,145.045 114.264,146.471 114.266,148.229 L114.266,166.050 C114.266,167.810 112.835,169.234 111.072,169.234 ZM107.878,151.414 L72.114,151.414 L72.114,162.869 L107.875,162.869 L107.878,162.869 L107.878,151.414 ZM31.710,68.209 C32.487,69.167 32.788,70.410 32.528,71.618 L30.822,79.511 L36.374,85.379 C37.449,86.519 37.777,88.134 37.227,89.596 C36.680,91.059 35.371,92.063 33.816,92.222 L25.767,93.047 L21.885,100.123 C21.163,101.431 19.790,102.242 18.299,102.242 C16.685,102.242 15.218,101.291 14.564,99.818 L11.291,92.438 L3.336,90.942 C1.796,90.651 0.578,89.537 0.159,88.032 C-0.263,86.530 0.201,84.949 1.370,83.906 L7.397,78.524 L6.368,70.523 C6.217,69.366 6.572,68.199 7.345,67.320 C8.597,65.900 10.823,65.533 12.471,66.484 L19.468,70.536 L26.785,67.087 C28.465,66.295 30.543,66.773 31.710,68.209 ZM24.321,79.341 L25.296,74.829 L21.104,76.807 C19.888,77.372 18.440,77.308 17.300,76.646 L13.293,74.326 L13.882,78.910 C14.055,80.243 13.557,81.574 12.550,82.467 L9.102,85.547 L13.661,86.404 C14.971,86.648 16.082,87.523 16.634,88.741 L18.516,92.986 L20.741,88.930 C21.391,87.752 22.575,86.971 23.908,86.833 L28.523,86.362 L25.341,83.000 C24.417,82.026 24.034,80.657 24.321,79.341 ZM31.855,100.225 C30.646,98.945 30.703,96.931 31.985,95.724 C33.267,94.518 35.290,94.573 36.502,95.853 C42.027,101.685 43.999,105.425 45.907,109.044 C47.693,112.431 49.378,115.629 54.303,120.827 C55.513,122.105 55.456,124.121 54.173,125.329 C53.556,125.908 52.768,126.197 51.980,126.197 C51.130,126.197 50.285,125.863 49.657,125.199 C44.131,119.367 42.159,115.627 40.251,112.009 C38.464,108.621 36.780,105.423 31.855,100.225 ZM29.536,102.411 C33.888,107.006 35.288,110.279 36.522,113.165 C37.694,115.910 38.710,118.278 42.279,122.043 C43.488,123.321 43.430,125.337 42.149,126.543 C41.531,127.124 40.743,127.413 39.955,127.413 C39.106,127.413 38.260,127.079 37.632,126.415 C33.280,121.820 31.881,118.548 30.646,115.661 C29.472,112.917 28.459,110.546 24.890,106.781 C23.680,105.504 23.738,103.487 25.019,102.282 C26.301,101.076 28.327,101.132 29.536,102.411 ZM130.962,134.478 C133.160,130.286 135.590,128.652 137.543,127.341 C139.240,126.197 140.584,125.295 142.034,122.529 C142.849,120.969 144.785,120.373 146.341,121.181 C147.907,121.994 148.511,123.919 147.693,125.477 C145.496,129.671 143.067,131.305 141.114,132.617 C139.414,133.759 138.071,134.661 136.623,137.426 C136.054,138.515 134.940,139.137 133.790,139.137 C133.293,139.137 132.787,139.020 132.313,138.774 C130.750,137.959 130.145,136.036 130.962,134.478 ZM144.597,134.187 C146.644,132.470 148.409,130.985 150.526,126.952 C151.341,125.394 153.271,124.792 154.836,125.607 C156.399,126.422 157.004,128.344 156.186,129.900 C153.488,135.045 150.952,137.176 148.711,139.054 C146.665,140.771 144.900,142.256 142.783,146.289 C142.215,147.378 141.101,148.000 139.951,148.000 C139.453,148.000 138.948,147.883 138.473,147.637 C136.910,146.822 136.306,144.899 137.123,143.341 C139.821,138.196 142.357,136.066 144.597,134.187 Z"/>
</svg>