<?xml version="1.0" encoding="utf-8"?>
<!-- Generator: Adobe Illustrator 19.0.0, SVG Export Plug-In . SVG Version: 6.00 Build 0)  -->
<svg version="1.1" id="Layer_1" xmlns="http://www.w3.org/2000/svg" xmlns:xlink="http://www.w3.org/1999/xlink" x="0px" y="0px"
	 viewBox="334.7 175.7 718.5 383.2" style="enable-background:new 334.7 175.7 718.5 383.2;" xml:space="preserve">
<style type="text/css">
	.st0{fill:#F9FBFA;}
	.st1{fill:#E53935;}
	.st2{opacity:0.2;fill:#F9FBFA;enable-background:new    ;}
</style>
<title>01</title>
<path class="st0" d="M701.7,500.9c-2.5,3.3-4.8,6.6-7.3,9.6c-1.8,2.3-4.3,4-7,5c-4.9,1.7-9.7,0.3-13.1-4.1c-1.6-2.3-3.1-4.8-4.5-7.3
	c-1.1,1-2.4,2.3-3.9,3.4c-7,5.2-14.8,6.6-23.1,3.8c-4.7-1.6-7.8-5-10.2-9.2c-0.2-0.3-0.4-0.7-0.7-1.2c-0.5,1.3-1,2.4-1.4,3.5
	c-1.7,4.7-4.1,9.1-7.1,13.1c-1.6,2.3-3.8,4.2-6.4,5.4c-3,1.4-6.1,1.1-9.2-0.1c-5.1-1.9-8.6-5.6-11.4-10c-3.2-5.1-5.6-10.7-7.2-16.5
	c-0.1-0.4-0.3-0.7-0.4-1.2c-1.4,0.7-2.7,1.4-4.1,2c-2.2,1-4.5,2.1-6.8,3.1c-0.7,0.2-1.2,0.9-1,1.7c0,0,0,0.1,0,0.1
	c1.9,12.4-3.1,21.7-13.1,28.6c-4.4,3.2-10,4.4-15.4,3.4c-4-0.8-7.3-2.6-9.4-6.2c-1.6-2.9-1.4-6-0.7-9.1c1.4-5.6,4.6-10.5,9.2-13.9
	c3-2.3,6.5-4.2,9.7-6.2c0.6-0.3,1.2-0.7,1.8-1c-2.3-1.8-4.9-3.3-7.6-4.3c-5.1-2.1-10.3-3.9-15.3-6.2c-4.9-2.3-9.5-5.3-13.5-9
	c-11.6-10.6-8.1-26.8,1.9-34.4c3.1-2.5,6.8-4.1,10.7-4.9c6.6-1.2,12,0.8,16.2,5.9c2.6,3.1,4.7,6.5,5,10.6c0,1.2-0.2,2.4-0.5,3.6
	c-0.4,1.3-1.5,2.2-2.9,2.2c-1.3,0.2-2.6-0.5-3.3-1.6c-1.8-2.6-3.5-5.2-5.5-7.7c-2.9-3.7-6.4-4.4-10.6-2.3c-2.9,1.4-5.6,3.1-7.1,6.1
	c-2.1,4.1-1.2,9.2,2.3,12.3c3.7,3.2,8,5.7,12.5,7.4c4.4,1.9,9.1,3.3,13.6,4.9c6.6,2.1,12.4,6,16.7,11.4c0.4,0.8,1.4,1,2.2,0.6
	c3.9-1.5,7.9-3,11.8-4.4c0.9-0.3,1.2-0.8,1-1.8c-1.3-9.4-1.2-19,0.4-28.4c1-5.7,2.4-11.3,5.9-16c1.2-1.8,2.6-3.4,4.3-4.8
	c5.6-4.5,13.3-2.5,16.4,4.1c2.5,5.2,3,10.7,2.9,16.3c-0.2,10.8-3,21-6.6,31.1c-1,2.8-2.2,5.6-3.4,8.3c-1,1.9-1.1,4-0.5,6
	c0.9,3.3,2.6,6.3,4.9,8.8c2,2.2,3.2,2.2,5.3,0.2c2.9-2.9,5.2-6.3,6.7-10.2c1.7-3.9,3.2-7.9,5-11.7c1.1-2.4,1.2-4.9,1.8-7.4
	c2-8.5,6.4-15.4,14.2-19.7c6-3.3,12.2-3.2,18,0.7c5.5,3.8,7.5,11.1,4.7,17.2c-2.2,4.8-5.6,9.1-9.8,12.4c-3.5,2.8-7.5,4-12,2.8
	c-0.1,4,3.1,7.2,7.1,7.3c0.1,0,0.3,0,0.4,0c5.5,0,9.5-2.7,12.8-6.7c0.3-0.4,0.7-0.9,1-1.3c1.2-1.5,1.9-3.3,2-5.2
	c0.2-6.1,2.4-12.1,6.2-16.9c2.5-3.2,6.1-5.5,10.1-6.3c0.4-0.1,0.8-0.2,1.3-0.3c-0.1-0.5-0.1-1-0.2-1.5c-0.9-8.6-1.9-17.2-0.9-25.8
	c0.5-4.9,1.1-9.8,3.3-14.3c1.4-3.3,4.1-5.9,7.5-7.1c3.3-1.1,6.2-0.2,8.8,1.9c3.2,2.6,4.9,6.1,6.2,9.9c2.9,8.2,3.4,16.7,2.9,25.3
	c-0.6,10.8-2.8,21.5-6.6,31.6c-0.4,0.9-0.6,1.9-0.7,2.8c0,0.8,0.3,1.6,0.8,2.2c2.6,1.8,5.5,3,8.6,1.7c1.2-0.5,2.2-1.2,3-2.2
	c2.9-3.6,5-7.8,6.1-12.2c0.8-3.1,1.6-6.2,2.4-9.3c0.3-1.6,1.7-2.8,3.3-2.8c1.5-0.1,2.9,0.9,3.3,2.3c0.1,0.4,0.1,0.8,0.1,1.3
	c-1.3,7.1-2.7,14.1-6,20.6c-1.4,3-3.4,5.7-5.8,8c-5.3,4.6-11.4,5.6-18.1,3.5C703.3,501.7,702.4,501.2,701.7,500.9z M700.7,472.9
	c0.2-0.8,0.4-1.4,0.6-2.1c1.5-6.4,2.3-12.9,2.6-19.5c0.3-6.5,0.4-13-1.2-19.5c-0.6-2.3-1-4.6-2.4-6.6c-1.1-1.5-2.5-1.6-3.3,0
	c-0.9,1.6-1.6,3.4-2,5.2c-0.9,4.8-0.5,9.6,0.2,14.4c1.2,8.2,2.2,16.4,3.3,24.6C698.4,471,699.3,472.3,700.7,472.9L700.7,472.9z
	 M680.8,496.6c0.4,1.5,1,4,1.8,6.3c1,2.9,2,3.1,4.3,1.1c2.9-2.5,4.8-5.8,6.5-9.2c0.6-1,0.6-2.3,0-3.4c-0.7-1.3-1.3-2.6-1.8-4
	c-1.1-3.3-2-6.6-3-9.9c-0.5-1.6-1.7-2.1-2.9-0.9c-1.4,1.3-2.5,2.9-3.4,4.6C680.2,486,680.2,490.9,680.8,496.6L680.8,496.6z
	 M565.2,505.9l-4.6,2.3c-3.9,2-8,3.8-10.7,7.5c-1.3,1.7-2.5,3.5-3.5,5.4c-1.3,2.6-0.1,4.5,2.7,4.9c1,0.1,2,0.2,3,0.1
	c2.4-0.4,4.6-1.3,6.5-2.8C564,519.2,566.6,512.4,565.2,505.9L565.2,505.9z M602.5,482.8l0.3-0.1c0.6-1.9,1.2-3.7,1.8-5.6
	c2.2-7,4-14.1,4.1-21.6c0-3.7-0.1-7.4-1.9-10.8c-0.4-0.7-1-1.6-1.7-1.8c-1-0.2-1.4,0.9-1.9,1.7c0,0.1-0.1,0.1-0.1,0.2
	c-1.9,4.4-2.7,9.2-2.3,14c0.4,7.4,1,14.8,1.5,22.3C602.3,481.7,602.4,482.2,602.5,482.8L602.5,482.8z M643.4,489.6
	c1.8-0.8,3.3-1.4,4.9-2.1c5-2.2,8.1-6.2,10.2-10.9c1-2.1,0.1-4.6-2-5.6c-0.9-0.4-1.9-0.5-2.9-0.3c-1.6,0.4-3.1,1.2-4.3,2.2
	c-2.2,1.9-3.8,4.3-4.7,7C643.5,483,643.1,486.3,643.4,489.6L643.4,489.6z"/>
<path class="st0" d="M825.9,494.5c1.3-1.5,2.3-2.7,3.2-4c11.7-15.7,21.4-32.7,29-50.6c1-2.4,1.3-5.1,1.9-7.7c0.9-3.7,3-6.4,6.6-7.6
	c4.3-1.5,7.8,0,10.8,3.2c2.4,2.8,3.9,6.4,4.2,10.1c1.3,10.7,2.5,21.4,3.8,32.1c0.3,2.1,0.8,4.1,1.3,6.1l0.6,0.1
	c1.1-1.5,2-3.1,2.8-4.7c5.2-13.7,10.2-27.4,15.3-41.1c1.7-4.6,2.9-9.4,3.6-14.2c0.4-2.2,0.9-4.4,1.7-6.5c1-3.3,3.1-5.7,6.6-6.3
	s6.2,1,8.2,3.6c2.3,2.8,3.7,6.2,4.2,9.8c0.6,6.2,0.6,12.5,1,18.7c0.6,8.6,1.3,17.2,1.9,25.8c0,0.4,0.2,0.8,0.3,1.8
	c1-1.3,1.9-2.8,2.7-4.3c3.5-9.5,7.1-19,10.3-28.6c0.8-2.5,0.1-5.4,0.4-8.1c0.2-2.8,0.6-5.5,1.3-8.2c1.2-3.7,3.8-5.5,6.6-5.3
	c3.7,0.2,6.7,2.9,7.3,6.6c0.8,3.6,1.4,7.3,1.9,11c1,7.2,2,14.3,3,21.5c0,0.3,0.1,0.7,0.3,1.4c0.5-0.9,0.7-1.4,1-1.9
	c5.3-10.4,10.5-20.8,16-31.1c3.8-7,9.4-12.3,16-16.6c6-3.9,12.2-2.4,16,3.6c3.9,6.1,5.8,13.2,5.6,20.5c-0.3,13.2-0.9,26.5-1.4,39.7
	c-0.1,1.8,0.1,3.6,0.1,5.4l0.5,0.2c1.2-2.1,2.6-4.2,3.7-6.4c6.6-13.1,11.4-26.9,15.8-40.9c0.9-2.7,1.7-5.5,2.5-8.2
	c1-3.3,3.7-5,6.8-4.2s4.6,4,3.6,7.3c-1.9,6.1-3.7,12.2-5.8,18.2c-3.8,11-7.7,22-13.1,32.4c-2.4,4.7-5.5,8.9-9.1,12.7
	c-5,5.3-13.4,5.5-18.7,0.4c-0.9-0.8-1.6-1.8-2.2-2.8c-2-3.3-3.5-7-4.2-10.8c-2.9-15.3-4-30.6-1.5-46c0.2-1.4,0.3-2.9,0.3-4.3
	c-1.1,1.5-2.3,2.7-3.2,4c-6.2,9.8-11.3,20.3-15.2,31.2c-1.6,4.2-3.3,8.3-5.2,12.4c-1.5,3.2-3.5,6-7,7.4c-3.7,1.5-7.5,0.3-10.6-3.1
	c-3.3-3.7-4.9-8.3-6.5-12.9c-0.1-0.2-0.1-0.3-0.3-0.8c-0.6,1.7-1.2,3-1.7,4.4c-1.7,5.2-4,10.2-7,14.8c-4.8,7.7-13,8.5-19.4,1.9
	c-3.7-3.8-5.3-8.6-6.8-13.5c-1.5-5.1-3-10.2-4.7-16c-0.4,0.6-0.7,1.3-1,2c-2.6,8.7-5.2,17.3-7.8,26c-1.5,4.7-3.8,9.1-6.9,13
	c-4,5.1-11,6.5-17.1,3.4c-6-2.9-9.7-7.8-12-13.8c-1.7-4.2-3-8.6-4.4-12.9c-0.1,0.1-0.3,0.4-0.5,0.7c-6.7,13.4-14.2,26.4-22.6,38.9
	c-2.1,3.2-4.5,6.2-8.1,8c-5.5,2.7-10.6,1.7-15.5-1.6c-4.5-3.1-7.4-7.4-10.1-12c-6.3-11.1-11.4-23-15.1-35.2c-0.4-1.3-1-2.6-1.6-4.2
	c-2.2,1.2-4.3,2.4-6.4,3.5c-3.8,2-7.7,4.1-11.6,6c-1.1,0.4-1.7,1.6-1.5,2.7c1.3,10.3,2.5,20.7,3.9,31c1,7.5,2.4,14.9,3.6,22.3
	c0.4,1.5,0.6,2.9,0.8,4.4c0.2,3.2-2.2,6-5.5,6.3c-1.1,0.1-2.2-0.2-3.2-0.7c-3.8-1.8-5.9-5.2-7-9.1c-2.5-9.1-5.1-18.1-7.4-27.3
	c-2.6-10.2-5.4-20.3-7.4-30.7c-2.2-11.1-3.7-22.4-5.1-33.7c-0.8-6.9-1.3-13.9-1.3-20.9c-0.1-5.6,0.6-11.1,1.1-16.7
	c0.3-2.7,1.4-5.3,3.2-7.4c2.5-3.1,6.3-3.5,9.3-0.8c3.2,2.9,4.8,6.6,5.8,10.7c0.5,2.2,0.9,4.4,1.5,7c0.7-0.6,1.3-1.3,1.8-2
	c4.1-8,10.2-14.8,17.7-19.7c4.3-2.8,8.9-5.5,14.4-5.6c6.8-0.1,11.8,3.2,16,8.1c3.7,4.3,6.1,9.6,7,15.2c1.7,9.4,1.8,18.7-1.5,27.9
	c-1.9,5.5-5,10.5-8.9,14.7c-2.1,2.2-2.3,4.3-1.1,7.1c4.7,11.2,9.2,22.5,13.9,33.7C822,487.7,824,490.8,825.9,494.5z M766.4,448.3
	l0.7,0.5c2.2-1.6,4.4-3.2,6.5-4.8c6.7-5.2,12.7-11,17.1-18.2c5.8-9.4,6.6-19.6,4.5-30.2c-0.4-2.2-1.6-3.1-3.7-2.4
	c-2.8,0.8-5.4,2.1-7.8,3.7c-6.3,4.5-10.5,10.7-14.1,17.4c-3.1,5.6-4.7,11.9-4.6,18.4C765.2,437.8,765.9,443.1,766.4,448.3
	L766.4,448.3z"/>
<path class="st1" d="M620.4,299.8l15.4-8.8c-17.8,35.6-63.4,65.3-106.7,75.2c0,0,16.5,3.9,31.9,3.9c8.7,0,17.4-1.8,25.3-5.5
	c-18.3,31.5-46.7,46.8-86.5,46.8c-2.9,0-5.9-0.1-9-0.2l-1.9-0.1l-0.9,4.8c-13.3-12.3-103.2-78.7-108.4-79.6l-0.1-1l4.6-0.4l-0.2-2.2
	c-2.3-27.4,7-53.5,26.9-76c-0.4,3.5-0.1,7.1,0.8,10.5l2.6,10.4l5.6-9.2c9-14.9,19-25.5,30.4-32c-3,4.2-5.1,9.1-6.1,14.2l-2.5,12.2
	l9.7-7.9c3.3-2.6,7.7-3.9,13.9-3.9s13.3,1.3,20.8,2.6c8.5,1.5,17.3,3.1,26,3.1c14.9,0,26-4.8,34.3-15c-2.2,4.8-6.4,9.7-12.5,14.8
	L521,267.3l2.3,3.6l15.3-6.9c14.9-6.7,29.2-9.4,43-11.9h0.2c26.8-5,52.2-9.7,74.6-42.8c-2.5,28.5-12.8,53.6-31.8,78.3l-6.9,9
	L620.4,299.8z"/>
<path class="st2" d="M493.1,357.3c18.1-12,29.4-9.6,35.4-3.8c-21.7-1-25.7,33-47,56.4l-92.9-71.8c6.7-20,18.1-32.4,39.8-39.3
	c48.5-15.3,150.4,26.7,184.3-31.3C590,337.7,508.4,318.6,493.1,357.3z"/>
<path class="st0" d="M665.7,182.7l-0.8-6.9l-7.4,14.3c-22.4,43.2-47.9,47.9-77.5,53.4c-9.1,1.5-18.2,3.5-27.1,6
	c8.8-14.3,0.3-31.8,0.2-32l-2.1-4.3l-4,9.9c-7,17.2-17.8,24.9-35.1,24.9c-7.7,0-16.1-1.5-24.2-2.9c-7.6-1.3-15.4-2.7-22.5-2.7
	c-2.9,0-5.7,0.2-8.5,0.8c8.2-12.6,28.4-20.1,28.6-20.2c0,0-38.7-2.5-64,27.6c-0.4-8.6,4.1-16,4.4-16.5c-61,34-57.8,99.4-57.8,100.1
	l0.1,2.2l0.8-0.1c-5.9,1.7-12.2,4.2-11.6,12.8c0.3,4.6,2,8.4,4,10.3c1.9,0.4,3.7,0.8,5.6,1.3l-0.3,0.5c-3.9,6.6-6.9,13.8-8.7,21.3
	c-2.3,9-3.7,18.2-4.4,27.4c-1,1.2-3,3.4-4.9,5.4c-8.5,9.3-12.4,13.7-13.1,15.5c-1.8,4.3,0.7,9.1,5.7,11.2c1.1,0.5,2.2,0.9,3.2,1.2
	c1.1,0.4,2.2,0.8,3.3,1.3c-0.3,0.8-0.7,2.1-1.1,3.1l-0.6,1.5c-0.9,2.9-0.6,6,0.8,8.6c1,1.3,2.2,2.5,3.6,3.3c0,0-2.4,2.7-1.9,4.1
	c2,5.4,6.7,22.4,3.1,33.6c-5.9,18.2-16.9,27.5-16.9,27.5s32,5.1,61.5-12.9l27.7,42.2c2.3,3.4,6.9,4.4,10.3,2.2
	c0.9-0.6,1.7-1.4,2.2-2.3c8.7-14,18.3-27.5,28.6-40.4c7.3-9,15.2-17.6,23.5-25.7c3.4-3.3,5-8.1,4.2-12.9
	c-2.2-12.1-5.9-35.5-4.8-46.9c0-0.1,0-0.1,0-0.2c2.8,0.1,5.6,0.2,8.4,0.2c6.5,0,13-0.6,19.4-1.8c0.2,0,0.3-0.1,0.5-0.1
	c22.8-4.3,73.1-24.5,96.4-57.2c33.9-47.5,41.3-100,41.3-100l-9.3,5.3C671.9,237,666,185,665.7,182.7z M365,462
	c-3.8-3.2-1.4-9.2-10.9-10.5c0,0,1.1-7.2-0.4-8.8s-4.8-2.8-7.9-4c-1-0.4-2-0.7-3-1.2c-2.2-0.9-4.1-3.1-3.2-5.2
	c0.8-1.6,8.3-9.8,12.3-14.2l1.7-1.8c1,8.1,6,14.3,12.1,14.3c6.8,0,12.3-7.7,12.3-17.2s-5.5-17.1-12.3-17.1c-2.1,0-4.2,0.8-5.9,2.1
	c-0.1-0.1-0.3-0.2-0.4-0.3c0.4-3,4.5-26.1,23.8-32.8c0,0,23.5,4.7,38.4,28.4c1.9,14.5-11.7,50.2-22.2,60.7
	C387.1,466.9,374.7,470.2,365,462z M421.8,532.7L398.3,512c23.3-15.1,25.9-27.3,25.5-37.2c-0.9-20.7,7.8-38.8,17.7-44.7
	c8.7-5.2,16.2-3.6,17.9-3.2c0.4,0.5,0.7,1.1,1.1,1.6l11.1,45.7L421.8,532.7z M529.1,366.2c0,0,16.5,3.9,31.9,3.9
	c8.7,0,17.4-1.8,25.3-5.5c-18.3,31.5-46.7,46.8-86.5,46.8c-2.9,0-5.9-0.1-9-0.2l-1.9-0.1l-0.2,1c-11.5-18.7-19.9-28.8-34.6-42
	c-21.8-19.6-52.4-33.2-71-35.2l1.2-0.1l-0.2-2.2c-2.3-27.4,7-53.5,26.9-76c-0.4,3.5-0.1,7.1,0.8,10.5l2.6,10.4l5.6-9.2
	c9-14.9,19-25.5,30.4-32c-3,4.2-5.1,9.1-6.1,14.2l-2.5,12.2l9.7-7.9c3.3-2.7,7.7-3.9,13.9-3.9s13.3,1.3,20.8,2.6
	c8.5,1.5,17.3,3.1,26,3.1c14.9,0,26-4.8,34.3-15c-2.2,4.8-6.4,9.7-12.5,14.8L521,267.3l2,3.1l0.1,0.2l0.2,0.3l15.3-6.9
	c14.9-6.7,29.2-9.4,43-11.9h0.2c26.8-5,52.2-9.7,74.6-42.8c-2.5,28.5-12.8,53.6-31.8,78.3l-6.9,9l2.2,2.5l0.2,0.3l0.3,0.4l15.5-8.8
	C618,326.6,572.4,356.3,529.1,366.2z"/>
<path class="st0" d="M515.8,427.8c-6.4,1.4-12.9,2.1-19.4,2c-2.5,0-5.2-0.1-8.5-0.2c0-0.1,0-0.1,0-0.2c2.8,0.1,5.7,0.2,8.4,0.2
	C502.8,429.6,509.4,429,515.8,427.8z"/>
</svg>
